<svg xmlns="http://www.w3.org/2000/svg" width="107.555" height="107.554" viewBox="0 0 107.555 107.554">
  <g id="Groupe_8" data-name="Groupe 8" transform="translate(-258 -907.001)">
    <path id="Tracé_15" data-name="Tracé 15" d="M63.1,53.778a9.319,9.319,0,1,1-9.319-9.319A9.319,9.319,0,0,1,63.1,53.778" transform="translate(258 907)" fill="#e76e51"/>
    <g id="Groupe_7" data-name="Groupe 7">
      <path id="Tracé_13" data-name="Tracé 13" d="M53.778,0A53.528,53.528,0,0,1,83.846,9.186a53.933,53.933,0,0,1,19.483,23.66,53.707,53.707,0,0,1-4.958,51,53.933,53.933,0,0,1-23.66,19.483,53.708,53.708,0,0,1-51-4.958A53.932,53.932,0,0,1,4.226,74.711a53.706,53.706,0,0,1,4.958-51A53.933,53.933,0,0,1,32.845,4.227,53.443,53.443,0,0,1,53.778,0Zm0,106.554A52.777,52.777,0,1,0,1,53.778,52.837,52.837,0,0,0,53.778,106.555Z" transform="translate(258 907)" fill="#e76e51"/>
      <path id="Ellipse_4" data-name="Ellipse 4" d="M19.93-.5a20.435,20.435,0,0,1,7.952,39.254,20.435,20.435,0,0,1-15.9-37.649A20.3,20.3,0,0,1,19.93-.5Zm0,39.86A19.43,19.43,0,1,0,.5,19.93,19.452,19.452,0,0,0,19.93,39.36Z" transform="translate(291.847 940.848)" fill="#e76e51"/>
      <path id="Tracé_16" data-name="Tracé 16" d="M63.1,53.778a9.319,9.319,0,1,1-9.319-9.319A9.319,9.319,0,0,1,63.1,53.778Z" transform="translate(258 907)" fill="#e76e51"/>
    </g>
  </g>
</svg>
