<svg xmlns="http://www.w3.org/2000/svg" width="103.449" height="103.449" viewBox="0 0 103.449 103.449">
  <path id="Icon_simple-spotify" data-name="Icon simple-spotify" d="M51.724,0a51.724,51.724,0,1,0,51.724,51.724A51.876,51.876,0,0,0,51.724,0Zm23.8,74.742a3.081,3.081,0,0,1-4.4,1.034c-12.155-7.5-27.414-9.056-45.522-4.918a3.2,3.2,0,1,1-1.547-6.2c19.655-4.4,36.724-2.586,50.173,5.69A3.106,3.106,0,0,1,75.522,74.742Zm6.207-14.224c-1.3,1.81-3.625,2.586-5.44,1.293C62.328,53.276,41.121,50.69,24.828,55.862a3.929,3.929,0,0,1-2.328-7.5c18.879-5.685,42.155-2.836,58.19,6.987a3.653,3.653,0,0,1,1.039,5.172Zm.517-14.483c-16.556-9.828-44.229-10.862-60-5.944A4.748,4.748,0,0,1,19.4,31.03c18.362-5.431,48.621-4.4,67.763,6.987a5,5,0,0,1,1.806,6.724A5.413,5.413,0,0,1,82.246,46.035Z" fill="#e76e51"/>
</svg>
