<svg xmlns="http://www.w3.org/2000/svg" width="172.519" height="75.175" viewBox="0 0 172.519 75.175">
  <path id="Icon_simple-soundcloud" data-name="Icon simple-soundcloud" d="M8.446,49.361a.791.791,0,0,0-.726.719L6.045,65.564,7.72,80.7a.719.719,0,0,0,1.438,0l1.833-15.131L9.05,50.08a.7.7,0,0,0-.647-.719M1.941,55.313a.737.737,0,0,0-.748.676L0,65.564l1.186,9.4a.669.669,0,0,0,.647.676.9.9,0,0,0,.748-.748l1.51-9.481-1.51-9.589a.614.614,0,0,0-.647-.647m13.155-8.834a.828.828,0,0,0-.863.748l-1.51,18.424,1.617,17.669a.849.849,0,0,0,.855.863c.438,0,.755-.438.87-.863L17.884,65.4,16.059,47.083c-.115-.431-.438-.863-.87-.863m6.793-.64a1.147,1.147,0,0,0-1.078.97L19.516,65.528l1.51,18.287a1.076,1.076,0,0,0,2.149-.086l1.725-18.2L23.175,46.673a.966.966,0,0,0-.97-.97Zm8.3,2.588A1.112,1.112,0,0,0,29.141,47.1a1.126,1.126,0,0,0-1.179,1.071L26.4,65.636,27.84,84.059a1.138,1.138,0,0,0,1.143,1.129,1.126,1.126,0,0,0,1.064-1.136l1.632-18.424L30.047,48.06l.237.108ZM36.1,35.883a1.333,1.333,0,0,0-1.294,1.3L33.3,65.629,34.64,84.052a1.24,1.24,0,0,0,1.294,1.179,1.4,1.4,0,0,0,1.294-1.294l1.5-18.424-1.5-28.552a1.346,1.346,0,0,0-1.294-1.294m6.894-6.57a1.52,1.52,0,0,0-1.459,1.395L40.075,65.514l1.186,18.316a1.446,1.446,0,0,0,1.4,1.5,1.624,1.624,0,0,0,1.51-1.5l1.387-18.316-1.38-34.906a1.626,1.626,0,0,0-1.51-1.51m7.109-3.228a1.622,1.622,0,0,0-1.617,1.5L46.976,65.291l1.186,18.115a1.733,1.733,0,0,0,1.617,1.617A1.663,1.663,0,0,0,51.4,83.405l1.4-18.115L51.389,27.372a1.658,1.658,0,0,0-1.617-1.617m8.949.323A1.7,1.7,0,0,0,57,24.353a1.778,1.778,0,0,0-1.725,1.725L54.2,65.19l1.071,17.992a1.883,1.883,0,0,0,1.84,1.725,1.7,1.7,0,0,0,1.725-1.725L60.015,65.19,58.836,25.971Zm5.384-.963a1.883,1.883,0,0,0-1.833,1.826L61.194,65.2l1.078,17.777a1.817,1.817,0,0,0,1.833,1.833,1.913,1.913,0,0,0,1.833-1.941l1.078-17.784L65.83,26.934a1.943,1.943,0,0,0-1.948-1.941m7.224,1.193a2.046,2.046,0,0,0-2.041,2.049L68.325,65.2l.97,17.784a2,2,0,0,0,2.041,1.991,2.108,2.108,0,0,0,2.041-2.049l.87-17.561-.97-36.747a2.109,2.109,0,0,0-2.049-2.049m8.511-6.793a2.382,2.382,0,0,0-2.372,0A2.16,2.16,0,0,0,76.3,21.615v.438l-.748,43.475.827,17.6v.058a2.38,2.38,0,0,0,.532,1.294,2.352,2.352,0,0,0,1.682.748,2.38,2.38,0,0,0,1.5-.647,2.258,2.258,0,0,0,.654-1.617l.108-1.725.841-15.836-.97-43.748a2.065,2.065,0,0,0-.97-1.718l-.014-.158Zm7.231-3.932a1.391,1.391,0,0,0-1.078-.438,2.474,2.474,0,0,0-1.5.438,2.254,2.254,0,0,0-.855,1.725v.208L82.55,65.291l.546,8.734.438,8.518A2.36,2.36,0,0,0,85.893,84.8a2.387,2.387,0,0,0,2.372-2.365l1.078-17.353L88.265,17.374a2.394,2.394,0,0,0-1.186-1.991m64.22,27.15a21.056,21.056,0,0,0-8.187,1.668,37.407,37.407,0,0,0-37.293-34.044A38.158,38.158,0,0,0,92.24,12.737c-1.617.647-1.941,1.294-2.049,2.581v67.34a2.662,2.662,0,0,0,2.372,2.48H151.4a20.913,20.913,0,0,0,21.119-21A21.17,21.17,0,0,0,151.4,42.914" transform="translate(0 -10.157)" fill="#e76e51"/>
</svg>
