<svg xmlns="http://www.w3.org/2000/svg" width="150.216" height="106.447" viewBox="0 0 150.216 106.447">
  <g id="Icon_feather-youtube" data-name="Icon feather-youtube" transform="translate(1.5 1.5)">
    <path id="Tracé_36" data-name="Tracé 36" d="M145.634,22.193A18.6,18.6,0,0,0,132.652,8.81C121.143,6,75.107,6,75.107,6S29.071,6,17.562,9.078A18.6,18.6,0,0,0,4.581,22.461,194.05,194.05,0,0,0,1.5,57.858,194.048,194.048,0,0,0,4.581,93.522a18.6,18.6,0,0,0,12.981,12.847c11.509,3.078,57.545,3.078,57.545,3.078s46.036,0,57.545-3.078a18.6,18.6,0,0,0,12.981-13.383,194.047,194.047,0,0,0,3.078-35.129,194.046,194.046,0,0,0-3.078-35.665Z" transform="translate(-1.499 -6)" fill="none" stroke="#e76e51" stroke-linecap="round" stroke-linejoin="round" stroke-width="3"/>
    <path id="Tracé_37" data-name="Tracé 37" d="M14.625,56.481,53.1,34.6,14.625,12.72Z" transform="translate(43.928 17.257)" fill="none" stroke="#e76e51" stroke-linecap="round" stroke-linejoin="round" stroke-width="3"/>
  </g>
</svg>
