<svg xmlns="http://www.w3.org/2000/svg" width="1923.999" height="239.119" viewBox="0 0 1923.999 239.119">
  <path id="Soustraction_2" data-name="Soustraction 2" d="M959.56,500h-.049a3.515,3.515,0,0,1-2.659-1.4c-1.233-1.466-1.974-3.963-2.2-7.421h.012a53.084,53.084,0,0,0-2.987-16.715,63.864,63.864,0,0,0-8.2-15.672,93.237,93.237,0,0,0-13.064-14.661,145.736,145.736,0,0,0-17.582-13.684,226.3,226.3,0,0,0-21.75-12.74c-7.758-4.018-16.361-8-25.569-11.831-8.958-3.728-18.729-7.413-29.042-10.955-10.05-3.45-20.872-6.852-32.166-10.112-79.3-22.891-189.67-41.269-328.032-54.622-28.422-2.743-58.328-5.3-88.886-7.591-27.766-2.085-56.724-4-86.069-5.7-49.366-2.861-100.69-5.158-152.547-6.828-20.423-.657-40.915-1.216-60.909-1.661-16.022-.358-31.82-.645-46.954-.854C15.21,307.2.15,307.193,0,307.193V265.067c2.486,0,61.864.068,149.548,3.015,51.856,1.743,103.191,4.138,152.579,7.12,61.7,3.726,120.522,8.383,174.835,13.843,138.193,13.891,248.413,33,327.6,56.791a562.929,562.929,0,0,1,61.106,21.891c9.177,3.975,17.766,8.11,25.526,12.292A224.113,224.113,0,0,1,912.9,393.255a146.3,146.3,0,0,1,17.549,14.214A95.667,95.667,0,0,1,943.495,422.7a67.349,67.349,0,0,1,8.185,16.277,57.173,57.173,0,0,1,2.982,17.36h-.013c.228,3.591.968,6.186,2.2,7.712a3.469,3.469,0,0,0,2.659,1.454h.055a1.8,1.8,0,0,0,.352-.033,4.967,4.967,0,0,0,2.764-1.2,6.69,6.69,0,0,0,1.868-2.719,13.745,13.745,0,0,0,.781-5.211,57.285,57.285,0,0,1,2.988-17.394,67.45,67.45,0,0,1,8.2-16.307,95.838,95.838,0,0,1,13.065-15.255,146.515,146.515,0,0,1,17.581-14.238,224.521,224.521,0,0,1,21.75-13.257c7.772-4.187,16.375-8.329,25.57-12.31a563.823,563.823,0,0,1,61.209-21.922c79.3-23.82,189.669-42.943,328.035-56.837,54.355-5.459,113.219-10.114,174.957-13.835,49.39-2.978,100.715-5.368,152.548-7.1,88.26-2.957,148.174-2.991,148.769-2.991v42.133h-.018c-.149,0-15.156,0-40.887.359-15.221.211-31.019.5-46.954.855-20.038.447-40.53,1.007-60.909,1.663-51.873,1.673-103.2,3.972-152.548,6.835-29.375,1.7-58.333,3.625-86.069,5.71-30.541,2.295-60.446,4.851-88.887,7.6C1305.359,343.4,1194.992,361.8,1115.691,384.71c-11.315,3.27-22.137,6.675-32.166,10.122-10.3,3.538-20.067,7.227-29.042,10.965-9.2,3.832-17.8,7.816-25.57,11.842a226.405,226.405,0,0,0-21.75,12.753,145.72,145.72,0,0,0-17.581,13.7,93.333,93.333,0,0,0-13.065,14.675,63.955,63.955,0,0,0-8.2,15.687,53.189,53.189,0,0,0-2.987,16.732,12.78,12.78,0,0,1-.782,5.013,6.447,6.447,0,0,1-1.867,2.615,5.053,5.053,0,0,1-2.762,1.156h-.005A2.133,2.133,0,0,1,959.56,500Z" transform="translate(1.999 -262.882)" fill="#e76e51" stroke="rgba(0,0,0,0)" stroke-miterlimit="10" stroke-width="4"/>
</svg>
